<svg xmlns="http://www.w3.org/2000/svg" xmlns:xlink="http://www.w3.org/1999/xlink" width="378" zoomAndPan="magnify" viewBox="0 0 282.96 283.499989" height="378" preserveAspectRatio="xMidYMid meet" version="1.2"><g id="c5e9e6dc20"><path style=" stroke:none;fill-rule:nonzero;fill:#00c300;fill-opacity:1;" d="M 53.921875 277.773438 L 228.628906 277.773438 C 255.898438 277.773438 278 255.667969 278 228.398438 L 278 53.691406 C 278 26.421875 255.898438 4.316406 228.628906 4.316406 L 53.921875 4.316406 C 26.652344 4.316406 4.546875 26.421875 4.546875 53.691406 L 4.546875 228.398438 C 4.546875 255.667969 26.652344 277.773438 53.921875 277.773438 Z M 53.921875 277.773438 "/><path style=" stroke:none;fill-rule:nonzero;fill:#ffffff;fill-opacity:1;" d="M 240.878906 129.019531 C 240.878906 84.46875 196.214844 48.222656 141.320312 48.222656 C 86.421875 48.222656 41.75 84.46875 41.75 129.019531 C 41.75 168.960938 77.171875 202.414062 125.019531 208.738281 C 128.261719 209.4375 132.675781 210.882812 133.792969 213.648438 C 134.792969 216.160156 134.445312 220.105469 134.109375 222.648438 C 134.109375 222.648438 132.949219 229.675781 132.691406 231.171875 C 132.257812 233.683594 130.691406 241.015625 141.3125 236.542969 C 151.9375 232.066406 198.644531 202.777344 219.535156 178.726562 L 219.527344 178.726562 C 233.96875 162.914062 240.878906 146.847656 240.878906 129.019531 Z M 102.34375 155.53125 L 82.566406 155.53125 C 79.6875 155.53125 77.347656 153.191406 77.347656 150.304688 L 77.347656 110.738281 C 77.347656 107.859375 79.6875 105.519531 82.566406 105.519531 C 85.445312 105.519531 87.78125 107.859375 87.78125 110.738281 L 87.78125 145.078125 L 102.34375 145.078125 C 105.222656 145.078125 107.5625 147.417969 107.5625 150.296875 C 107.5625 153.183594 105.222656 155.53125 102.34375 155.53125 Z M 122.800781 150.304688 C 122.800781 153.183594 120.460938 155.53125 117.582031 155.53125 C 114.703125 155.53125 112.363281 153.191406 112.363281 150.304688 L 112.363281 110.738281 C 112.363281 107.859375 114.703125 105.519531 117.582031 105.519531 C 120.460938 105.519531 122.800781 107.859375 122.800781 110.738281 Z M 170.425781 150.304688 C 170.425781 152.558594 169 154.550781 166.855469 155.257812 C 166.316406 155.4375 165.753906 155.53125 165.203125 155.53125 C 163.566406 155.53125 162.011719 154.746094 161.03125 153.441406 L 140.757812 125.832031 L 140.757812 150.304688 C 140.757812 153.183594 138.417969 155.53125 135.53125 155.53125 C 132.652344 155.53125 130.304688 153.191406 130.304688 150.304688 L 130.304688 110.738281 C 130.304688 108.488281 131.742188 106.5 133.875 105.785156 C 134.414062 105.601562 134.96875 105.519531 135.53125 105.519531 C 137.15625 105.519531 138.722656 106.300781 139.703125 107.605469 L 159.984375 135.21875 L 159.984375 110.738281 C 159.984375 107.859375 162.328125 105.519531 165.207031 105.519531 C 168.085938 105.519531 170.425781 107.859375 170.425781 110.738281 Z M 202.4375 125.296875 C 205.316406 125.296875 207.664062 127.636719 207.664062 130.523438 C 207.664062 133.402344 205.324219 135.742188 202.4375 135.742188 L 187.875 135.742188 L 187.875 145.085938 L 202.4375 145.085938 C 205.316406 145.085938 207.664062 147.425781 207.664062 150.304688 C 207.664062 153.183594 205.316406 155.53125 202.4375 155.53125 L 182.65625 155.53125 C 179.785156 155.53125 177.4375 153.191406 177.4375 150.304688 L 177.4375 130.53125 C 177.4375 130.523438 177.4375 130.523438 177.4375 130.523438 C 177.4375 130.523438 177.4375 130.515625 177.4375 130.515625 L 177.4375 110.757812 C 177.4375 110.753906 177.4375 110.753906 177.4375 110.746094 C 177.4375 107.867188 179.777344 105.527344 182.65625 105.527344 L 202.4375 105.527344 C 205.316406 105.527344 207.664062 107.867188 207.664062 110.746094 C 207.664062 113.625 205.324219 115.964844 202.4375 115.964844 L 187.875 115.964844 L 187.875 125.304688 L 202.4375 125.304688 Z M 202.4375 125.296875 "/></g></svg>