<svg xmlns="http://www.w3.org/2000/svg" xmlns:xlink="http://www.w3.org/1999/xlink" width="378" zoomAndPan="magnify" viewBox="0 0 282.96 283.499989" height="378" preserveAspectRatio="xMidYMid meet" version="1.2"><defs><clipPath id="d1caf7da67"><path d="M 0.230469 0 L 282.691406 0 L 282.691406 283 L 0.230469 283 Z M 0.230469 0 "/></clipPath><clipPath id="8ca835a0ef"><path d="M 0.230469 41.925781 L 0.230469 241.039062 C 0.230469 264.195312 19 282.964844 42.15625 282.964844 L 241.269531 282.964844 C 264.421875 282.964844 283.195312 264.195312 283.195312 241.039062 L 283.195312 41.925781 C 283.195312 18.769531 264.421875 0 241.269531 0 L 42.15625 0 C 19 0 0.230469 18.769531 0.230469 41.925781 Z M 0.230469 41.925781 "/></clipPath><clipPath id="4e6d1ae3cc"><path d="M 69 32 L 220 32 L 220 202 L 69 202 Z M 69 32 "/></clipPath><clipPath id="1054fcc049"><path d="M 0.230469 41.925781 L 0.230469 241.039062 C 0.230469 264.195312 19 282.964844 42.15625 282.964844 L 241.269531 282.964844 C 264.421875 282.964844 283.195312 264.195312 283.195312 241.039062 L 283.195312 41.925781 C 283.195312 18.769531 264.421875 0 241.269531 0 L 42.15625 0 C 19 0 0.230469 18.769531 0.230469 41.925781 Z M 0.230469 41.925781 "/></clipPath><clipPath id="c344b7c4c3"><path d="M 72 32 L 212 32 L 212 195 L 72 195 Z M 72 32 "/></clipPath><clipPath id="c5275d57b7"><path d="M 0.230469 41.925781 L 0.230469 241.039062 C 0.230469 264.195312 19 282.964844 42.15625 282.964844 L 241.269531 282.964844 C 264.421875 282.964844 283.195312 264.195312 283.195312 241.039062 L 283.195312 41.925781 C 283.195312 18.769531 264.421875 0 241.269531 0 L 42.15625 0 C 19 0 0.230469 18.769531 0.230469 41.925781 Z M 0.230469 41.925781 "/></clipPath><clipPath id="02bbef2e68"><path d="M 66 159 L 68 159 L 68 161 L 66 161 Z M 66 159 "/></clipPath><clipPath id="b3b700ab73"><path d="M 0.230469 41.925781 L 0.230469 241.039062 C 0.230469 264.195312 19 282.964844 42.15625 282.964844 L 241.269531 282.964844 C 264.421875 282.964844 283.195312 264.195312 283.195312 241.039062 L 283.195312 41.925781 C 283.195312 18.769531 264.421875 0 241.269531 0 L 42.15625 0 C 19 0 0.230469 18.769531 0.230469 41.925781 Z M 0.230469 41.925781 "/></clipPath><clipPath id="44b0a3c7cb"><path d="M 63 87 L 125 87 L 125 186 L 63 186 Z M 63 87 "/></clipPath><clipPath id="5e8765e4e9"><path d="M 0.230469 41.925781 L 0.230469 241.039062 C 0.230469 264.195312 19 282.964844 42.15625 282.964844 L 241.269531 282.964844 C 264.421875 282.964844 283.195312 264.195312 283.195312 241.039062 L 283.195312 41.925781 C 283.195312 18.769531 264.421875 0 241.269531 0 L 42.15625 0 C 19 0 0.230469 18.769531 0.230469 41.925781 Z M 0.230469 41.925781 "/></clipPath><clipPath id="2a0e6e22bc"><path d="M 105 24 L 212 24 L 212 173 L 105 173 Z M 105 24 "/></clipPath><clipPath id="3c67ce1065"><path d="M 0.230469 41.925781 L 0.230469 241.039062 C 0.230469 264.195312 19 282.964844 42.15625 282.964844 L 241.269531 282.964844 C 264.421875 282.964844 283.195312 264.195312 283.195312 241.039062 L 283.195312 41.925781 C 283.195312 18.769531 264.421875 0 241.269531 0 L 42.15625 0 C 19 0 0.230469 18.769531 0.230469 41.925781 Z M 0.230469 41.925781 "/></clipPath><clipPath id="1420eace8b"><path d="M 160 227 L 182 227 L 182 264 L 160 264 Z M 160 227 "/></clipPath><clipPath id="ce063ac118"><path d="M 0.230469 41.925781 L 0.230469 241.039062 C 0.230469 264.195312 19 282.964844 42.15625 282.964844 L 241.269531 282.964844 C 264.421875 282.964844 283.195312 264.195312 283.195312 241.039062 L 283.195312 41.925781 C 283.195312 18.769531 264.421875 0 241.269531 0 L 42.15625 0 C 19 0 0.230469 18.769531 0.230469 41.925781 Z M 0.230469 41.925781 "/></clipPath><clipPath id="53d04259eb"><path d="M 181 227 L 203 227 L 203 264 L 181 264 Z M 181 227 "/></clipPath><clipPath id="03247e0297"><path d="M 0.230469 41.925781 L 0.230469 241.039062 C 0.230469 264.195312 19 282.964844 42.15625 282.964844 L 241.269531 282.964844 C 264.421875 282.964844 283.195312 264.195312 283.195312 241.039062 L 283.195312 41.925781 C 283.195312 18.769531 264.421875 0 241.269531 0 L 42.15625 0 C 19 0 0.230469 18.769531 0.230469 41.925781 Z M 0.230469 41.925781 "/></clipPath><clipPath id="02c73279f6"><path d="M 42 219 L 241 219 L 241 265 L 42 265 Z M 42 219 "/></clipPath><clipPath id="e3246497cb"><path d="M 0.230469 41.925781 L 0.230469 241.039062 C 0.230469 264.195312 19 282.964844 42.15625 282.964844 L 241.269531 282.964844 C 264.421875 282.964844 283.195312 264.195312 283.195312 241.039062 L 283.195312 41.925781 C 283.195312 18.769531 264.421875 0 241.269531 0 L 42.15625 0 C 19 0 0.230469 18.769531 0.230469 41.925781 Z M 0.230469 41.925781 "/></clipPath></defs><g id="f2aaed8f9e"><g clip-rule="nonzero" clip-path="url(#d1caf7da67)"><g clip-rule="nonzero" clip-path="url(#8ca835a0ef)"><path style=" stroke:none;fill-rule:nonzero;fill:#000000;fill-opacity:1;" d="M 0.230469 0 L 283.230469 0 L 283.230469 283 L 0.230469 283 Z M 0.230469 0 "/></g></g><g clip-rule="nonzero" clip-path="url(#4e6d1ae3cc)"><g clip-rule="nonzero" clip-path="url(#1054fcc049)"><path style=" stroke:none;fill-rule:nonzero;fill:#ee1d52;fill-opacity:1;" d="M 69.5625 176.273438 L 70.121094 177.902344 C 70.058594 177.722656 69.839844 177.15625 69.5625 176.273438 Z M 92.519531 139.164062 C 92.671875 137.289062 93.03125 135.449219 93.597656 133.652344 C 94.164062 131.855469 94.921875 130.144531 95.875 128.519531 C 96.828125 126.890625 97.949219 125.390625 99.238281 124.019531 C 100.53125 122.644531 101.957031 121.433594 103.519531 120.382812 C 112.859375 113.554688 124.496094 117.410156 124.496094 117.410156 L 124.496094 94.449219 C 127.332031 94.378906 130.148438 94.554688 132.953125 94.980469 L 132.953125 124.507812 C 132.953125 124.507812 121.3125 120.652344 111.976562 127.480469 C 110.410156 128.53125 108.984375 129.742188 107.695312 131.117188 C 106.402344 132.488281 105.28125 133.988281 104.328125 135.617188 C 103.378906 137.242188 102.617188 138.953125 102.050781 140.75 C 101.484375 142.546875 101.125 144.386719 100.972656 146.265625 C 100.863281 149.1875 101.214844 152.050781 102.035156 154.855469 C 102.851562 157.664062 104.089844 160.269531 105.75 162.675781 C 104.757812 162.148438 103.769531 161.546875 102.742188 160.871094 C 101.054688 159.632812 99.546875 158.203125 98.214844 156.585938 C 96.882812 154.96875 95.773438 153.210938 94.878906 151.316406 C 93.988281 149.421875 93.339844 147.445312 92.941406 145.386719 C 92.542969 143.332031 92.402344 141.257812 92.519531 139.167969 Z M 181.105469 52 C 178.589844 49.191406 176.507812 46.089844 174.855469 42.703125 C 173.203125 39.3125 172.042969 35.761719 171.378906 32.050781 L 179.457031 32.050781 C 179.371094 34.527344 179.527344 36.988281 179.925781 39.433594 C 180.324219 41.882812 180.957031 44.265625 181.824219 46.585938 C 182.691406 48.910156 183.777344 51.125 185.082031 53.230469 C 186.386719 55.339844 187.882812 57.300781 189.574219 59.113281 L 189.753906 59.289062 C 186.566406 57.222656 183.6875 54.796875 181.117188 52 Z M 219.984375 72.800781 L 219.984375 101.738281 C 213.933594 101.464844 207.953125 100.648438 202.046875 99.300781 C 195.886719 97.722656 190.0625 95.328125 184.574219 92.117188 C 184.574219 92.117188 179.839844 89.007812 179.480469 88.792969 L 179.480469 148.574219 C 179.277344 154.953125 178.101562 161.144531 175.941406 167.148438 C 174.683594 170.40625 173.125 173.511719 171.265625 176.46875 C 169.40625 179.421875 167.285156 182.175781 164.894531 184.71875 C 162.507812 187.265625 159.898438 189.5625 157.066406 191.605469 C 154.234375 193.644531 151.234375 195.398438 148.0625 196.863281 C 141.015625 200.109375 133.609375 201.738281 125.847656 201.746094 C 120.53125 201.730469 115.328125 200.960938 110.238281 199.4375 C 105.144531 197.914062 100.371094 195.699219 95.921875 192.792969 C 92.839844 190.667969 89.988281 188.277344 87.359375 185.613281 L 87.429688 185.683594 C 91.878906 188.597656 96.648438 190.816406 101.742188 192.339844 C 106.835938 193.863281 112.039062 194.628906 117.355469 194.632812 C 125.117188 194.625 132.523438 193 139.574219 189.75 C 142.742188 188.289062 145.742188 186.535156 148.574219 184.492188 C 151.40625 182.449219 154.015625 180.15625 156.40625 177.609375 C 158.792969 175.0625 160.917969 172.3125 162.773438 169.355469 C 164.632812 166.398438 166.191406 163.292969 167.449219 160.035156 C 169.609375 154.03125 170.789062 147.839844 170.988281 141.464844 L 170.988281 81.714844 C 171.378906 81.929688 176.082031 85.042969 176.082031 85.042969 C 181.570312 88.253906 187.398438 90.648438 193.558594 92.222656 C 199.460938 93.574219 205.441406 94.386719 211.492188 94.664062 L 211.492188 71.988281 C 214.277344 72.703125 217.105469 72.976562 219.976562 72.800781 Z M 219.984375 72.800781 "/></g></g><g clip-rule="nonzero" clip-path="url(#c344b7c4c3)"><g clip-rule="nonzero" clip-path="url(#c5275d57b7)"><path style=" stroke:none;fill-rule:nonzero;fill:#ffffff;fill-opacity:1;" d="M 211.496094 71.953125 L 211.496094 94.628906 C 205.445312 94.351562 199.464844 93.539062 193.5625 92.1875 C 187.398438 90.609375 181.574219 88.21875 176.085938 85.007812 C 176.085938 85.007812 171.351562 81.894531 170.992188 81.679688 L 170.992188 141.464844 C 170.789062 147.839844 169.613281 154.03125 167.453125 160.035156 C 166.195312 163.292969 164.636719 166.398438 162.777344 169.355469 C 160.917969 172.3125 158.796875 175.0625 156.40625 177.609375 C 154.019531 180.15625 151.410156 182.449219 148.578125 184.492188 C 145.746094 186.535156 142.746094 188.289062 139.578125 189.75 C 132.527344 193 125.121094 194.625 117.359375 194.632812 C 112.042969 194.617188 106.839844 193.847656 101.75 192.324219 C 96.65625 190.800781 91.882812 188.585938 87.433594 185.683594 L 87.363281 185.613281 C 85.875 184.09375 84.472656 182.503906 83.15625 180.835938 C 79.789062 176.390625 77.125 171.554688 75.160156 166.335938 L 75.160156 166.300781 C 73.015625 160.039062 71.964844 153.601562 72.011719 146.984375 C 72.085938 142.703125 72.671875 138.492188 73.769531 134.355469 C 74.863281 130.214844 76.433594 126.265625 78.484375 122.503906 C 81.78125 116.65625 85.964844 111.539062 91.042969 107.152344 C 95.527344 103.375 100.503906 100.425781 105.972656 98.308594 C 111.898438 95.8125 118.078125 94.511719 124.507812 94.40625 L 124.507812 117.363281 C 124.507812 117.363281 112.871094 113.507812 103.53125 120.335938 C 103.117188 120.609375 102.710938 120.894531 102.3125 121.195312 C 101.914062 121.492188 101.527344 121.800781 101.148438 122.121094 C 100.769531 122.445312 100.398438 122.777344 100.039062 123.121094 C 99.683594 123.464844 99.332031 123.816406 98.996094 124.183594 C 98.660156 124.546875 98.332031 124.921875 98.019531 125.308594 C 97.703125 125.691406 97.402344 126.085938 97.109375 126.488281 C 96.820312 126.890625 96.542969 127.304688 96.277344 127.722656 C 96.011719 128.144531 95.757812 128.570312 95.519531 129.007812 C 95.277344 129.441406 95.050781 129.882812 94.839844 130.332031 C 94.625 130.78125 94.425781 131.234375 94.242188 131.695312 C 94.054688 132.15625 93.882812 132.625 93.726562 133.097656 C 93.570312 133.566406 93.429688 134.042969 93.300781 134.523438 C 93.171875 135.003906 93.058594 135.488281 92.960938 135.972656 C 92.859375 136.460938 92.777344 136.949219 92.707031 137.441406 C 92.636719 137.933594 92.582031 138.429688 92.542969 138.921875 C 92.503906 139.417969 92.480469 139.914062 92.472656 140.410156 C 92.464844 140.910156 92.46875 141.40625 92.488281 141.902344 C 92.511719 142.398438 92.546875 142.894531 92.597656 143.386719 C 92.648438 143.882812 92.714844 144.375 92.796875 144.863281 C 92.878906 145.355469 92.972656 145.84375 93.082031 146.328125 C 93.195312 146.8125 93.320312 147.292969 93.457031 147.769531 C 93.597656 148.246094 93.753906 148.71875 93.921875 149.183594 C 94.089844 149.652344 94.269531 150.113281 94.46875 150.570312 C 94.664062 151.027344 94.875 151.476562 95.097656 151.921875 C 95.320312 152.363281 95.558594 152.800781 95.808594 153.230469 C 96.058594 153.660156 96.320312 154.082031 96.597656 154.496094 C 96.871094 154.910156 97.160156 155.3125 97.460938 155.707031 C 97.761719 156.105469 98.074219 156.492188 98.398438 156.867188 C 98.71875 157.246094 99.054688 157.613281 99.402344 157.96875 C 99.746094 158.324219 100.105469 158.671875 100.46875 159.007812 C 100.835938 159.339844 101.214844 159.664062 101.601562 159.976562 C 101.988281 160.289062 102.382812 160.589844 102.789062 160.878906 C 103.8125 161.550781 104.804688 162.152344 105.792969 162.683594 C 106.640625 163.808594 107.574219 164.855469 108.597656 165.824219 C 109.621094 166.792969 110.71875 167.667969 111.890625 168.449219 C 113.066406 169.230469 114.292969 169.90625 115.582031 170.480469 C 116.867188 171.050781 118.195312 171.511719 119.558594 171.859375 C 120.925781 172.210938 122.308594 172.441406 123.714844 172.554688 C 125.117188 172.667969 126.519531 172.660156 127.925781 172.535156 C 129.328125 172.410156 130.710938 172.167969 132.070312 171.808594 C 133.433594 171.449219 134.757812 170.976562 136.039062 170.394531 C 137.535156 169.738281 138.949219 168.933594 140.28125 167.980469 C 141.609375 167.027344 142.824219 165.945312 143.921875 164.738281 C 145.023438 163.527344 145.984375 162.214844 146.808594 160.800781 C 147.632812 159.386719 148.296875 157.90625 148.808594 156.351562 C 149.921875 152.558594 150.359375 148.691406 150.117188 144.75 L 150.117188 32.050781 L 171.339844 32.050781 C 172 35.765625 173.152344 39.316406 174.808594 42.707031 C 176.460938 46.097656 178.546875 49.195312 181.070312 52 C 183.65625 54.777344 186.535156 57.207031 189.707031 59.289062 C 193.144531 62.976562 197.09375 65.996094 201.554688 68.34375 C 204.726562 69.941406 208.039062 71.148438 211.496094 71.964844 Z M 211.496094 71.953125 "/></g></g><g clip-rule="nonzero" clip-path="url(#02bbef2e68)"><g clip-rule="nonzero" clip-path="url(#b3b700ab73)"><path style=" stroke:none;fill-rule:nonzero;fill:#69c9d0;fill-opacity:1;" d="M 66.699219 159.328125 L 67.226562 160.851562 C 67.160156 160.675781 66.945312 160.140625 66.699219 159.328125 Z M 66.699219 159.328125 "/></g></g><g clip-rule="nonzero" clip-path="url(#44b0a3c7cb)"><g clip-rule="nonzero" clip-path="url(#5e8765e4e9)"><path style=" stroke:none;fill-rule:nonzero;fill:#69c9d0;fill-opacity:1;" d="M 105.964844 98.34375 C 100.492188 100.453125 95.515625 103.402344 91.039062 107.1875 C 85.949219 111.582031 81.761719 116.710938 78.480469 122.578125 C 76.425781 126.335938 74.851562 130.285156 73.757812 134.425781 C 72.664062 138.566406 72.078125 142.777344 72.007812 147.058594 C 71.972656 153.671875 73.023438 160.113281 75.152344 166.375 L 75.152344 166.410156 C 77.128906 171.625 79.792969 176.460938 83.148438 180.914062 C 84.46875 182.578125 85.871094 184.171875 87.359375 185.6875 C 82.539062 182.351562 78.304688 178.386719 74.65625 173.800781 C 71.296875 169.378906 68.644531 164.570312 66.699219 159.367188 L 66.699219 159.296875 C 64.535156 153.03125 63.484375 146.582031 63.550781 139.949219 C 63.628906 135.667969 64.214844 131.457031 65.308594 127.316406 C 66.402344 123.175781 67.976562 119.226562 70.023438 115.46875 C 73.308594 109.601562 77.492188 104.472656 82.582031 100.078125 C 85.445312 97.632812 88.535156 95.515625 91.851562 93.726562 C 95.164062 91.9375 98.632812 90.515625 102.246094 89.464844 C 105.863281 88.410156 109.550781 87.75 113.308594 87.484375 C 117.066406 87.214844 120.808594 87.347656 124.539062 87.875 L 124.539062 94.457031 C 118.097656 94.554688 111.90625 95.855469 105.964844 98.355469 Z M 105.964844 98.34375 "/></g></g><g clip-rule="nonzero" clip-path="url(#2a0e6e22bc)"><g clip-rule="nonzero" clip-path="url(#3c67ce1065)"><path style=" stroke:none;fill-rule:nonzero;fill:#69c9d0;fill-opacity:1;" d="M 171.375 32.050781 L 150.152344 32.050781 L 150.152344 144.753906 C 150.375 148.695312 149.9375 152.5625 148.839844 156.355469 C 148.324219 157.90625 147.652344 159.386719 146.824219 160.796875 C 145.996094 162.203125 145.035156 163.515625 143.933594 164.722656 C 142.835938 165.929688 141.625 167.015625 140.300781 167.96875 C 138.972656 168.925781 137.566406 169.738281 136.070312 170.398438 C 135.089844 170.875 134.078125 171.285156 133.042969 171.625 C 132.003906 171.960938 130.949219 172.230469 129.871094 172.421875 C 128.796875 172.617188 127.714844 172.738281 126.625 172.78125 C 125.535156 172.828125 124.445312 172.796875 123.359375 172.695312 C 122.269531 172.589844 121.195312 172.414062 120.132812 172.160156 C 119.070312 171.910156 118.03125 171.585938 117.011719 171.191406 C 115.992188 170.796875 115.007812 170.335938 114.050781 169.804688 C 113.097656 169.277344 112.183594 168.683594 111.308594 168.027344 C 109.183594 166.570312 107.359375 164.808594 105.828125 162.734375 C 107.484375 163.652344 109.226562 164.359375 111.054688 164.855469 C 112.882812 165.351562 114.742188 165.625 116.636719 165.675781 C 118.53125 165.722656 120.402344 165.546875 122.253906 165.144531 C 124.105469 164.742188 125.882812 164.125 127.582031 163.292969 C 129.082031 162.636719 130.492188 161.828125 131.820312 160.875 C 133.148438 159.921875 134.363281 158.839844 135.460938 157.628906 C 136.5625 156.417969 137.523438 155.109375 138.347656 153.695312 C 139.171875 152.285156 139.839844 150.804688 140.351562 149.25 C 141.464844 145.460938 141.902344 141.589844 141.664062 137.648438 L 141.664062 24.941406 L 170.988281 24.941406 C 170.773438 27.328125 170.902344 29.699219 171.375 32.050781 Z M 211.488281 65.691406 L 211.488281 71.953125 C 207.296875 71.003906 203.339844 69.449219 199.625 67.289062 C 195.90625 65.128906 192.597656 62.464844 189.699219 59.289062 C 190.796875 59.996094 191.890625 60.632812 193.058594 61.238281 C 195.894531 62.742188 198.875 63.871094 201.992188 64.625 C 205.113281 65.378906 208.28125 65.734375 211.488281 65.691406 Z M 211.488281 65.691406 "/></g></g><g clip-rule="nonzero" clip-path="url(#1420eace8b)"><g clip-rule="nonzero" clip-path="url(#ce063ac118)"><path style=" stroke:none;fill-rule:nonzero;fill:#69c9d0;fill-opacity:1;" d="M 172.078125 245.78125 C 172.074219 246.589844 172.191406 247.378906 172.433594 248.152344 C 172.433594 248.222656 172.46875 248.257812 172.46875 248.328125 C 172.753906 249.238281 173.171875 250.085938 173.726562 250.863281 C 174.285156 251.640625 174.945312 252.316406 175.714844 252.882812 C 176.484375 253.449219 177.324219 253.878906 178.234375 254.175781 C 179.140625 254.476562 180.074219 254.625 181.03125 254.621094 L 181.03125 263.679688 C 178.875 263.898438 176.742188 263.78125 174.625 263.320312 C 172.507812 262.863281 170.515625 262.085938 168.648438 260.992188 C 168.316406 260.785156 167.992188 260.566406 167.671875 260.339844 C 167.355469 260.113281 167.042969 259.875 166.742188 259.628906 C 166.4375 259.382812 166.144531 259.125 165.859375 258.859375 C 165.570312 258.589844 165.296875 258.316406 165.027344 258.03125 C 164.757812 257.746094 164.5 257.453125 164.25 257.152344 C 164.003906 256.851562 163.761719 256.542969 163.535156 256.226562 C 163.304688 255.90625 163.085938 255.582031 162.878906 255.253906 C 162.671875 254.921875 162.476562 254.582031 162.289062 254.238281 C 162.101562 253.894531 161.929688 253.546875 161.765625 253.191406 C 161.601562 252.835938 161.453125 252.476562 161.3125 252.109375 C 161.171875 251.746094 161.042969 251.375 160.929688 251.003906 C 160.8125 250.628906 160.710938 250.253906 160.617188 249.871094 C 160.527344 249.492188 160.449219 249.109375 160.382812 248.722656 C 160.316406 248.339844 160.261719 247.953125 160.222656 247.5625 C 160.179688 247.171875 160.152344 246.785156 160.136719 246.394531 C 160.121094 246.003906 160.117188 245.613281 160.128906 245.222656 C 160.136719 244.832031 160.160156 244.441406 160.195312 244.050781 C 160.230469 243.660156 160.277344 243.273438 160.339844 242.886719 C 160.398438 242.5 160.472656 242.117188 160.558594 241.734375 C 160.644531 241.355469 160.742188 240.976562 160.851562 240.601562 C 160.960938 240.226562 161.082031 239.855469 161.214844 239.488281 C 161.351562 239.121094 161.496094 238.757812 161.65625 238.398438 C 161.8125 238.042969 161.980469 237.691406 162.160156 237.34375 C 162.34375 236.996094 162.535156 236.65625 162.738281 236.320312 C 162.941406 235.988281 163.152344 235.660156 163.378906 235.339844 C 163.601562 235.019531 163.835938 234.707031 164.078125 234.402344 C 164.324219 234.097656 164.578125 233.800781 164.84375 233.511719 C 165.105469 233.222656 165.378906 232.941406 165.660156 232.671875 C 165.941406 232.402344 166.234375 232.140625 166.53125 231.886719 C 166.832031 231.636719 167.136719 231.394531 167.453125 231.160156 C 167.765625 230.929688 168.089844 230.707031 168.417969 230.496094 C 168.746094 230.285156 169.082031 230.085938 169.425781 229.898438 C 171.226562 228.996094 173.113281 228.359375 175.089844 227.980469 C 177.066406 227.601562 179.058594 227.496094 181.0625 227.667969 L 181.0625 236.722656 C 180.476562 236.722656 179.894531 236.78125 179.316406 236.894531 C 178.738281 237.007812 178.179688 237.175781 177.636719 237.402344 C 177.09375 237.625 176.578125 237.902344 176.089844 238.230469 C 175.597656 238.554688 175.148438 238.925781 174.730469 239.34375 C 174.316406 239.757812 173.945312 240.210938 173.617188 240.699219 C 173.292969 241.1875 173.015625 241.703125 172.789062 242.246094 C 172.566406 242.792969 172.398438 243.351562 172.28125 243.929688 C 172.167969 244.503906 172.113281 245.085938 172.113281 245.675781 Z M 172.078125 245.78125 "/></g></g><g clip-rule="nonzero" clip-path="url(#53d04259eb)"><g clip-rule="nonzero" clip-path="url(#03247e0297)"><path style=" stroke:none;fill-rule:nonzero;fill:#ee1d52;fill-opacity:1;" d="M 190.050781 245.78125 C 190.058594 246.589844 189.9375 247.378906 189.695312 248.152344 C 189.695312 248.222656 189.660156 248.257812 189.660156 248.328125 C 189.375 249.238281 188.957031 250.085938 188.402344 250.863281 C 187.847656 251.640625 187.183594 252.316406 186.414062 252.882812 C 185.644531 253.449219 184.804688 253.878906 183.898438 254.175781 C 182.988281 254.476562 182.054688 254.625 181.101562 254.621094 L 181.101562 263.679688 C 183.25 263.898438 185.378906 263.78125 187.488281 263.320312 C 189.597656 262.863281 191.585938 262.085938 193.445312 260.992188 C 194.765625 260.195312 195.957031 259.246094 197.027344 258.140625 C 198.097656 257.03125 199.007812 255.808594 199.757812 254.464844 C 200.507812 253.121094 201.074219 251.703125 201.457031 250.214844 C 201.835938 248.722656 202.019531 247.207031 202.007812 245.667969 C 202.011719 244.058594 201.804688 242.472656 201.382812 240.917969 C 200.960938 239.363281 200.339844 237.890625 199.523438 236.5 C 198.703125 235.113281 197.714844 233.859375 196.558594 232.738281 C 195.402344 231.613281 194.117188 230.667969 192.703125 229.890625 C 190.902344 228.992188 189.011719 228.351562 187.035156 227.976562 C 185.058594 227.597656 183.070312 227.492188 181.0625 227.664062 L 181.0625 236.71875 C 181.652344 236.71875 182.234375 236.773438 182.8125 236.890625 C 183.386719 237.003906 183.949219 237.171875 184.492188 237.398438 C 185.035156 237.621094 185.550781 237.898438 186.039062 238.222656 C 186.527344 238.550781 186.980469 238.921875 187.398438 239.335938 C 187.8125 239.753906 188.183594 240.203125 188.511719 240.695312 C 188.835938 241.183594 189.113281 241.699219 189.335938 242.242188 C 189.5625 242.785156 189.730469 243.34375 189.84375 243.921875 C 189.957031 244.5 190.015625 245.082031 190.015625 245.667969 L 190.015625 245.773438 Z M 190.050781 245.78125 "/></g></g><g clip-rule="nonzero" clip-path="url(#02c73279f6)"><g clip-rule="nonzero" clip-path="url(#e3246497cb)"><path style=" stroke:none;fill-rule:nonzero;fill:#ffffff;fill-opacity:1;" d="M 42.503906 219.46875 L 75.652344 219.46875 L 72.589844 228.59375 L 63.921875 228.59375 L 63.921875 263.507812 L 53.253906 263.507812 L 53.253906 228.59375 L 42.503906 228.59375 Z M 130.375 219.46875 L 130.375 228.59375 L 141.128906 228.59375 L 141.128906 263.507812 L 151.8125 263.507812 L 151.8125 228.59375 L 160.476562 228.59375 L 163.542969 219.46875 Z M 82.867188 229.832031 C 83.207031 229.832031 83.542969 229.800781 83.875 229.734375 C 84.207031 229.667969 84.53125 229.570312 84.84375 229.441406 C 85.15625 229.308594 85.453125 229.152344 85.738281 228.960938 C 86.019531 228.773438 86.28125 228.558594 86.519531 228.320312 C 86.757812 228.082031 86.972656 227.820312 87.160156 227.539062 C 87.351562 227.253906 87.507812 226.957031 87.640625 226.644531 C 87.769531 226.332031 87.867188 226.007812 87.933594 225.675781 C 88 225.34375 88.03125 225.007812 88.03125 224.667969 C 88.03125 224.328125 88 223.992188 87.933594 223.660156 C 87.867188 223.328125 87.769531 223.003906 87.640625 222.691406 C 87.507812 222.378906 87.351562 222.082031 87.160156 221.796875 C 86.972656 221.515625 86.757812 221.253906 86.519531 221.015625 C 86.28125 220.777344 86.019531 220.5625 85.738281 220.375 C 85.453125 220.183594 85.15625 220.027344 84.84375 219.894531 C 84.53125 219.765625 84.207031 219.667969 83.875 219.601562 C 83.542969 219.535156 83.207031 219.503906 82.867188 219.503906 C 82.527344 219.503906 82.191406 219.535156 81.859375 219.601562 C 81.527344 219.667969 81.203125 219.765625 80.890625 219.894531 C 80.578125 220.027344 80.28125 220.183594 79.996094 220.375 C 79.714844 220.5625 79.457031 220.777344 79.214844 221.015625 C 78.976562 221.253906 78.761719 221.515625 78.574219 221.796875 C 78.382812 222.082031 78.226562 222.378906 78.097656 222.691406 C 77.964844 223.003906 77.867188 223.328125 77.800781 223.660156 C 77.734375 223.992188 77.703125 224.328125 77.703125 224.667969 C 77.703125 225.007812 77.734375 225.34375 77.800781 225.675781 C 77.863281 226.007812 77.960938 226.332031 78.089844 226.644531 C 78.21875 226.960938 78.378906 227.257812 78.566406 227.539062 C 78.753906 227.824219 78.96875 228.082031 79.210938 228.324219 C 79.449219 228.5625 79.710938 228.777344 79.992188 228.964844 C 80.273438 229.15625 80.574219 229.3125 80.886719 229.441406 C 81.199219 229.574219 81.523438 229.671875 81.855469 229.734375 C 82.1875 229.800781 82.523438 229.832031 82.863281 229.832031 Z M 77.699219 263.480469 L 88.171875 263.480469 L 88.171875 233.476562 L 77.699219 233.476562 Z M 125.808594 229.59375 L 113.570312 229.59375 L 103.027344 240.132812 L 103.027344 219.46875 L 92.628906 219.46875 L 92.59375 263.4375 L 103.101562 263.4375 L 103.101562 251.976562 L 106.355469 248.996094 L 116.542969 263.429688 L 127.746094 263.429688 L 112.980469 242.347656 Z M 226.203125 242.40625 L 239.019531 229.59375 L 226.777344 229.59375 L 216.238281 240.132812 L 216.238281 219.46875 L 205.828125 219.46875 L 205.757812 263.480469 L 216.265625 263.480469 L 216.265625 252.019531 L 219.558594 249.046875 L 229.746094 263.480469 L 240.960938 263.480469 Z M 199.28125 245.660156 C 199.289062 246.261719 199.269531 246.859375 199.21875 247.457031 C 199.167969 248.054688 199.085938 248.648438 198.976562 249.238281 C 198.867188 249.828125 198.730469 250.410156 198.5625 250.984375 C 198.398438 251.5625 198.203125 252.128906 197.980469 252.683594 C 197.757812 253.242188 197.507812 253.785156 197.230469 254.316406 C 196.957031 254.851562 196.65625 255.367188 196.328125 255.871094 C 196 256.371094 195.648438 256.855469 195.273438 257.324219 C 194.898438 257.792969 194.503906 258.242188 194.082031 258.671875 C 193.664062 259.097656 193.222656 259.507812 192.765625 259.890625 C 192.304688 260.277344 191.828125 260.640625 191.335938 260.976562 C 190.839844 261.316406 190.328125 261.628906 189.804688 261.917969 C 189.277344 262.207031 188.738281 262.46875 188.1875 262.703125 C 187.636719 262.9375 187.074219 263.144531 186.5 263.324219 C 185.929688 263.503906 185.351562 263.65625 184.761719 263.777344 C 184.175781 263.902344 183.585938 263.992188 182.988281 264.058594 C 182.394531 264.121094 181.792969 264.15625 181.195312 264.164062 C 180.59375 264.167969 179.996094 264.144531 179.398438 264.089844 C 178.804688 264.039062 178.210938 263.953125 177.621094 263.84375 C 177.03125 263.730469 176.449219 263.589844 175.875 263.421875 C 175.300781 263.25 174.734375 263.054688 174.179688 262.828125 C 173.621094 262.605469 173.078125 262.351562 172.546875 262.074219 C 172.015625 261.796875 171.5 261.492188 171 261.160156 C 170.5 260.832031 170.015625 260.480469 169.550781 260.101562 C 169.082031 259.726562 168.636719 259.328125 168.210938 258.90625 C 167.78125 258.484375 167.378906 258.042969 166.996094 257.582031 C 166.609375 257.121094 166.25 256.640625 165.914062 256.144531 C 165.578125 255.648438 165.269531 255.136719 164.980469 254.609375 C 164.695312 254.082031 164.4375 253.542969 164.203125 252.992188 C 163.972656 252.4375 163.765625 251.875 163.589844 251.304688 C 163.414062 250.730469 163.265625 250.148438 163.144531 249.5625 C 163.023438 248.976562 162.933594 248.382812 162.871094 247.785156 C 162.808594 247.191406 162.777344 246.59375 162.773438 245.992188 C 162.773438 245.394531 162.796875 244.796875 162.855469 244.199219 C 162.910156 243.601562 162.996094 243.007812 163.109375 242.417969 C 163.226562 241.832031 163.367188 241.25 163.539062 240.675781 C 163.710938 240.101562 163.914062 239.535156 164.140625 238.980469 C 164.367188 238.425781 164.621094 237.886719 164.902344 237.355469 C 165.183594 236.824219 165.488281 236.3125 165.820312 235.8125 C 166.152344 235.3125 166.507812 234.828125 166.886719 234.367188 C 167.265625 233.902344 167.667969 233.457031 168.089844 233.03125 C 168.515625 232.605469 168.957031 232.203125 169.417969 231.820312 C 169.882812 231.441406 170.363281 231.082031 170.859375 230.75 C 171.359375 230.414062 171.871094 230.105469 172.398438 229.824219 C 172.929688 229.539062 173.46875 229.28125 174.023438 229.050781 C 174.578125 228.820312 175.140625 228.621094 175.714844 228.445312 C 176.289062 228.269531 176.867188 228.125 177.457031 228.007812 C 178.042969 227.890625 178.636719 227.800781 179.234375 227.742188 C 179.828125 227.683594 180.429688 227.65625 181.027344 227.652344 C 181.621094 227.648438 182.214844 227.675781 182.804688 227.730469 C 183.394531 227.785156 183.984375 227.867188 184.566406 227.976562 C 185.148438 228.089844 185.726562 228.230469 186.296875 228.398438 C 186.863281 228.566406 187.425781 228.761719 187.972656 228.984375 C 188.523438 229.207031 189.0625 229.457031 189.585938 229.734375 C 190.113281 230.011719 190.625 230.3125 191.121094 230.636719 C 191.617188 230.964844 192.09375 231.316406 192.554688 231.6875 C 193.019531 232.0625 193.460938 232.457031 193.882812 232.875 C 194.304688 233.289062 194.707031 233.726562 195.085938 234.183594 C 195.46875 234.640625 195.824219 235.113281 196.15625 235.605469 C 196.492188 236.09375 196.800781 236.601562 197.082031 237.125 C 197.367188 237.644531 197.625 238.179688 197.855469 238.726562 C 198.085938 239.273438 198.289062 239.828125 198.464844 240.398438 C 198.644531 240.964844 198.789062 241.539062 198.910156 242.117188 C 199.03125 242.699219 199.121094 243.285156 199.183594 243.875 C 199.246094 244.46875 199.28125 245.058594 199.285156 245.652344 Z M 189.976562 245.660156 C 189.976562 245.074219 189.921875 244.492188 189.804688 243.914062 C 189.691406 243.339844 189.523438 242.777344 189.296875 242.234375 C 189.070312 241.691406 188.796875 241.175781 188.46875 240.6875 C 188.144531 240.199219 187.773438 239.746094 187.355469 239.332031 C 186.941406 238.917969 186.488281 238.546875 186 238.21875 C 185.511719 237.890625 184.996094 237.617188 184.453125 237.390625 C 183.910156 237.167969 183.351562 236.996094 182.773438 236.882812 C 182.199219 236.769531 181.617188 236.710938 181.027344 236.710938 C 180.441406 236.710938 179.859375 236.769531 179.28125 236.882812 C 178.707031 236.996094 178.144531 237.167969 177.601562 237.390625 C 177.058594 237.617188 176.542969 237.890625 176.054688 238.21875 C 175.566406 238.546875 175.113281 238.917969 174.699219 239.332031 C 174.28125 239.746094 173.914062 240.199219 173.585938 240.6875 C 173.257812 241.175781 172.984375 241.691406 172.757812 242.234375 C 172.535156 242.777344 172.363281 243.339844 172.25 243.914062 C 172.132812 244.492188 172.078125 245.074219 172.078125 245.660156 C 172.078125 246.25 172.132812 246.832031 172.25 247.40625 C 172.363281 247.984375 172.535156 248.542969 172.757812 249.085938 C 172.984375 249.628906 173.257812 250.144531 173.585938 250.632812 C 173.914062 251.121094 174.28125 251.574219 174.699219 251.988281 C 175.113281 252.40625 175.566406 252.777344 176.054688 253.101562 C 176.542969 253.429688 177.058594 253.707031 177.601562 253.929688 C 178.144531 254.15625 178.707031 254.324219 179.28125 254.441406 C 179.859375 254.554688 180.441406 254.613281 181.027344 254.613281 C 181.617188 254.613281 182.199219 254.554688 182.777344 254.441406 C 183.355469 254.328125 183.914062 254.160156 184.457031 253.933594 C 185 253.710938 185.519531 253.433594 186.007812 253.105469 C 186.496094 252.78125 186.949219 252.410156 187.367188 251.992188 C 187.78125 251.574219 188.152344 251.125 188.480469 250.632812 C 188.804688 250.144531 189.082031 249.628906 189.304688 249.082031 C 189.53125 248.539062 189.699219 247.980469 189.8125 247.402344 C 189.925781 246.824219 189.984375 246.242188 189.980469 245.652344 Z M 189.976562 245.660156 "/></g></g></g></svg>