<svg xmlns="http://www.w3.org/2000/svg" xmlns:xlink="http://www.w3.org/1999/xlink" width="378" zoomAndPan="magnify" viewBox="0 0 282.96 283.499989" height="378" preserveAspectRatio="xMidYMid meet" version="1.2"><g id="4f6eb3c25e"><path style=" stroke:none;fill-rule:nonzero;fill:#ff3d00;fill-opacity:1;" d="M 275.199219 210.128906 C 272.410156 224.769531 260.554688 235.925781 245.914062 238.015625 C 222.90625 241.503906 184.558594 245.683594 141.332031 245.683594 C 98.804688 245.683594 60.457031 241.503906 36.753906 238.015625 C 22.109375 235.925781 10.257812 224.769531 7.46875 210.128906 C 4.679688 194.09375 1.890625 170.386719 1.890625 141.105469 C 1.890625 111.820312 4.679688 88.117188 7.46875 72.082031 C 10.257812 57.4375 22.109375 46.285156 36.753906 44.191406 C 59.761719 40.707031 98.105469 36.523438 141.332031 36.523438 C 184.558594 36.523438 222.210938 40.707031 245.914062 44.191406 C 260.554688 46.285156 272.410156 57.4375 275.199219 72.082031 C 277.984375 88.117188 281.472656 111.820312 281.472656 141.105469 C 280.773438 170.386719 277.984375 194.09375 275.199219 210.128906 Z M 275.199219 210.128906 "/><path style=" stroke:none;fill-rule:nonzero;fill:#ffffff;fill-opacity:1;" d="M 113.445312 189.910156 L 113.445312 92.300781 L 197.109375 141.105469 Z M 113.445312 189.910156 "/></g></svg>