<svg xmlns="http://www.w3.org/2000/svg" xmlns:xlink="http://www.w3.org/1999/xlink" width="639" zoomAndPan="magnify" viewBox="0 0 479.25 71.249999" height="95" preserveAspectRatio="xMidYMid meet" version="1.0"><path fill="#ffffff" d="M 153.558594 6.078125 C 151.605469 8.707031 149.128906 14.335938 145.226562 24.996094 C 133.066406 58.246094 132.464844 59.449219 127.210938 60.425781 C 125.257812 60.800781 124.507812 61.324219 124.507812 62.375 C 124.507812 63.726562 125.109375 63.800781 134.492188 63.652344 C 142.222656 63.5 144.398438 63.203125 144.398438 62.375 C 144.398438 61.851562 142.898438 60.800781 141.023438 60.125 C 138.320312 59.148438 137.644531 58.472656 137.570312 57.046875 C 137.496094 55.996094 137.71875 54.792969 138.019531 54.417969 C 138.621094 53.59375 140.570312 47.8125 140.347656 47.4375 C 140.269531 47.363281 140.796875 46.238281 141.398438 45.035156 L 142.597656 42.710938 L 152.054688 42.933594 L 161.515625 43.160156 L 164.441406 50.890625 C 166.015625 55.167969 167.144531 58.921875 166.917969 59.296875 C 166.691406 59.671875 165.492188 60.125 164.289062 60.425781 C 162.714844 60.800781 162.039062 61.398438 162.039062 62.375 C 162.039062 63.800781 162.566406 63.800781 173.449219 63.652344 C 183.582031 63.425781 184.933594 63.277344 185.15625 62.152344 C 185.308594 61.25 184.78125 60.722656 183.507812 60.347656 C 181.105469 59.75 180.277344 58.472656 176 48.039062 C 174.050781 43.308594 171.945312 38.355469 171.347656 37.003906 C 170.746094 35.730469 170.296875 34.378906 170.296875 34.078125 C 170.296875 33.777344 169.621094 32.050781 168.71875 30.25 C 167.894531 28.449219 167.066406 26.570312 166.992188 26.121094 C 166.84375 25.597656 166.394531 24.320312 165.941406 23.269531 C 165.117188 21.242188 164.066406 18.613281 163.992188 18.015625 C 163.691406 16.589844 157.234375 2.25 156.859375 2.25 C 156.632812 2.25 155.132812 3.976562 153.558594 6.078125 Z M 155.882812 28.222656 L 159.5625 37.90625 L 152.804688 38.132812 C 145.226562 38.355469 143.273438 37.980469 144.625 36.628906 C 145.148438 36.105469 145.527344 35.128906 145.527344 34.378906 C 145.527344 33.628906 146.203125 31.527344 147.101562 29.722656 C 147.925781 27.847656 148.753906 25.894531 148.828125 25.371094 C 149.128906 23.71875 151.679688 17.941406 151.980469 18.238281 C 152.132812 18.316406 153.859375 22.820312 155.882812 28.222656 Z M 155.882812 28.222656 " fill-opacity="1" fill-rule="nonzero"/><path fill="#ffffff" d="M 380.464844 2.851562 C 380.464844 3.226562 379.339844 5.027344 377.988281 6.832031 C 376.488281 8.933594 373.785156 15.011719 370.785156 23.269531 C 359.074219 55.695312 357.121094 59.597656 352.242188 60.5 C 350.367188 60.800781 349.691406 61.324219 349.691406 62.375 C 349.691406 63.726562 350.292969 63.800781 359.675781 63.652344 C 367.78125 63.5 369.582031 63.203125 369.582031 62.300781 C 369.582031 61.625 368.15625 60.800781 365.980469 60.199219 L 362.378906 59.148438 L 362.828125 56.296875 C 363.050781 54.71875 364.253906 51.117188 365.378906 48.339844 L 367.480469 43.160156 L 376.863281 42.933594 L 386.246094 42.710938 L 389.023438 49.914062 C 390.523438 53.820312 391.726562 57.570312 391.726562 58.171875 C 391.726562 58.847656 390.523438 59.898438 389.023438 60.5 C 387.597656 61.101562 386.472656 62 386.695312 62.527344 C 387.148438 63.875 409.890625 63.800781 410.339844 62.449219 C 410.492188 61.925781 409.664062 61.101562 408.3125 60.574219 C 406.4375 59.898438 405.535156 58.621094 403.210938 53.367188 C 401.632812 49.839844 400.359375 46.761719 400.28125 46.539062 C 400.28125 46.3125 399.832031 45.1875 399.382812 44.0625 C 398.855469 42.859375 398.480469 41.808594 398.480469 41.582031 C 398.480469 41.359375 397.503906 39.105469 396.304688 36.554688 C 395.105469 34.003906 393.601562 30.324219 392.925781 28.375 C 392.328125 26.421875 390.75 22.59375 389.550781 19.890625 C 388.347656 17.1875 387.449219 15.011719 387.671875 15.011719 C 387.824219 15.011719 387.449219 14.1875 386.773438 13.210938 C 386.171875 12.160156 385.644531 11.257812 385.722656 11.109375 C 385.945312 10.660156 384.820312 7.882812 383.46875 5.253906 C 382.117188 2.703125 380.464844 1.425781 380.464844 2.851562 Z M 384.21875 37.605469 C 384.21875 37.980469 380.84375 38.28125 376.636719 38.28125 C 369.734375 38.28125 369.058594 38.132812 369.582031 36.929688 C 369.882812 36.253906 370.933594 33.253906 371.984375 30.398438 C 373.035156 27.472656 374.085938 24.621094 374.3125 24.019531 C 374.535156 23.417969 374.761719 22.667969 374.835938 22.292969 C 374.988281 21.992188 375.136719 21.617188 375.210938 21.390625 C 375.289062 21.167969 375.4375 20.792969 375.511719 20.417969 C 375.585938 20.117188 375.886719 19.441406 376.261719 18.839844 C 376.714844 18.164062 378.066406 20.71875 380.542969 27.398438 C 382.570312 32.652344 384.21875 37.230469 384.21875 37.605469 Z M 384.21875 37.605469 " fill-opacity="1" fill-rule="nonzero"/><path fill="#ffffff" d="M 26.929688 3.679688 C 12.742188 8.332031 4.035156 23.570312 6.511719 39.558594 C 8.238281 50.589844 13.867188 58.699219 22.277344 62.527344 C 27.304688 64.777344 38.113281 65.226562 43.519531 63.425781 C 48.621094 61.699219 55.675781 54.945312 56.878906 50.667969 C 57.929688 46.839844 56.652344 45.261719 54.851562 48.039062 C 52.148438 52.015625 48.171875 55.84375 45.320312 57.121094 C 41.566406 58.847656 34.660156 58.921875 30.832031 57.347656 C 25.726562 55.246094 20.625 48.863281 19.199219 42.785156 C 18.449219 39.707031 18.597656 24.167969 19.421875 22.519531 C 19.5 22.292969 19.648438 21.769531 19.796875 21.390625 C 19.875 20.941406 20.023438 20.492188 20.097656 20.265625 C 20.25 20.042969 20.398438 19.289062 20.550781 18.613281 C 21 16.214844 25.429688 10.660156 28.207031 8.855469 C 32.109375 6.457031 39.464844 6.457031 43.96875 8.855469 C 47.945312 10.957031 49.972656 13.886719 52.074219 20.492188 C 53.726562 25.597656 54.851562 27.171875 55.675781 25.671875 C 56.203125 24.921875 56.277344 17.863281 55.828125 10.507812 C 55.675781 7.429688 55.453125 4.578125 55.453125 4.277344 C 55.453125 3.976562 54.175781 4.429688 52.601562 5.328125 L 49.824219 6.980469 L 46.445312 5.253906 C 43.816406 3.902344 41.492188 3.527344 35.9375 3.300781 C 32.035156 3.152344 27.980469 3.300781 26.929688 3.679688 Z M 26.929688 3.679688 " fill-opacity="1" fill-rule="nonzero"/><path fill="#ffffff" d="M 61.757812 4.878906 C 61.082031 6.457031 61.757812 6.980469 65.4375 7.882812 C 67.761719 8.480469 68.664062 9.082031 69.039062 10.507812 C 69.863281 13.585938 69.789062 53.367188 68.886719 56.445312 C 68.136719 59.222656 67.6875 59.523438 63.332031 60.199219 C 62.433594 60.347656 61.832031 61.023438 61.832031 61.925781 C 61.832031 63.351562 62.433594 63.425781 74.21875 63.652344 C 80.972656 63.726562 86.976562 63.652344 87.429688 63.5 C 87.953125 63.277344 88.179688 62.449219 87.953125 61.625 C 87.652344 60.5 86.976562 60.046875 85.476562 60.046875 C 81.574219 60.046875 80.972656 58.398438 80.597656 45.9375 L 80.222656 34.527344 L 104.242188 34.527344 L 104.242188 43.683594 C 104.242188 52.167969 103.492188 58.023438 102.441406 59.074219 C 102.214844 59.375 100.714844 59.75 99.214844 59.972656 C 97.035156 60.347656 96.285156 60.800781 96.136719 62.152344 L 95.910156 63.800781 L 122.257812 63.800781 L 122.257812 61.925781 C 122.257812 60.425781 121.882812 60.046875 120.457031 60.046875 C 119.480469 60.046875 117.902344 59.375 116.925781 58.621094 L 115.125 57.195312 L 114.902344 35.128906 C 114.75 23.042969 114.902344 12.386719 115.125 11.484375 C 115.726562 9.007812 117.601562 7.507812 120.078125 7.507812 C 121.882812 7.507812 122.257812 7.207031 122.257812 5.628906 L 122.257812 3.753906 L 109.347656 3.902344 C 97.035156 4.128906 96.359375 4.203125 96.359375 5.628906 C 96.359375 6.679688 97.035156 7.207031 98.914062 7.582031 C 103.492188 8.558594 103.867188 9.457031 104.09375 20.566406 L 104.390625 30.625 L 100.714844 30.851562 C 98.761719 31 93.433594 31 88.855469 30.773438 L 80.597656 30.398438 L 80.371094 21.769531 C 80.222656 17.039062 80.296875 12.460938 80.523438 11.484375 C 81.199219 9.007812 83.074219 7.507812 85.550781 7.507812 C 87.503906 7.507812 87.804688 7.28125 87.578125 5.78125 C 87.351562 4.128906 87.203125 4.128906 74.742188 3.902344 C 63.933594 3.753906 62.132812 3.902344 61.757812 4.878906 Z M 61.757812 4.878906 " fill-opacity="1" fill-rule="nonzero"/><path fill="#ffffff" d="M 187.859375 4.804688 C 187.183594 6.53125 188.011719 7.28125 191.238281 7.804688 C 196.566406 8.632812 196.566406 8.707031 196.566406 34.003906 L 196.566406 56.371094 L 194.691406 58.171875 C 193.488281 59.449219 192.0625 60.046875 190.1875 60.046875 C 187.859375 60.046875 187.558594 60.273438 187.558594 61.925781 L 187.558594 63.800781 L 215.933594 63.800781 L 216.234375 62 C 216.535156 60.425781 216.308594 60.199219 213.605469 59.824219 C 208.125 59.074219 208.277344 59.597656 207.828125 34.679688 C 207.375 8.332031 207.527344 7.730469 214.054688 7.582031 C 215.859375 7.507812 216.15625 7.207031 215.933594 5.78125 C 215.707031 4.128906 215.558594 4.128906 201.972656 3.902344 C 190.488281 3.753906 188.234375 3.902344 187.859375 4.804688 Z M 187.859375 4.804688 " fill-opacity="1" fill-rule="nonzero"/><path fill="#ffffff" d="M 219.6875 4.128906 C 219.3125 4.503906 219.085938 5.40625 219.085938 6.15625 C 219.085938 7.128906 219.6875 7.507812 221.261719 7.507812 C 225.390625 7.507812 225.464844 7.882812 225.464844 33.402344 C 225.464844 55.246094 225.390625 56.972656 224.039062 58.398438 C 223.289062 59.296875 221.789062 60.046875 220.660156 60.199219 C 219.3125 60.347656 218.710938 60.875 218.710938 61.925781 C 218.710938 63.351562 219.3125 63.425781 231.019531 63.652344 C 243.40625 63.875 245.730469 63.425781 244.832031 61.101562 C 244.605469 60.5 243.40625 60.046875 241.980469 60.046875 C 237.625 60.046875 236.949219 58.398438 236.800781 47.363281 L 236.726562 37.53125 L 239.578125 37.53125 C 242.128906 37.53125 242.65625 37.90625 245.65625 42.035156 C 249.9375 47.8125 258.867188 62.074219 258.867188 63.050781 C 258.867188 64.101562 294.671875 64.101562 295.273438 63.050781 C 296.097656 61.773438 294.296875 60.273438 291.519531 59.75 C 290.09375 59.449219 288.816406 58.847656 288.816406 58.324219 C 288.742188 57.421875 288.515625 56.296875 288.214844 55.546875 C 287.992188 54.792969 288.066406 16.363281 288.292969 16.136719 C 288.667969 15.761719 303.078125 49.238281 305.929688 56.972656 C 308.785156 64.777344 310.960938 65.003906 313.285156 57.570312 C 313.960938 55.394531 315.164062 52.316406 315.914062 50.667969 C 316.964844 48.1875 318.917969 43.011719 319.292969 41.285156 C 319.367188 41.058594 319.667969 40.234375 320.042969 39.40625 C 322.144531 34.152344 325.824219 24.167969 326.046875 23.195312 C 326.199219 22.441406 327.023438 20.640625 327.847656 19.066406 L 329.425781 16.136719 L 329.199219 37.378906 C 329.050781 60.425781 329.125 60.046875 324.847656 60.046875 C 322.894531 60.046875 321.46875 61.773438 322.371094 63.125 C 323.046875 64.253906 346.390625 63.953125 347.363281 62.824219 C 348.414062 61.550781 347.066406 60.046875 344.8125 60.046875 C 340.910156 60.046875 340.835938 59.296875 340.757812 33.253906 C 340.757812 16.4375 341.058594 8.855469 341.585938 8.558594 C 342.035156 8.257812 343.460938 7.804688 344.738281 7.582031 C 346.089844 7.28125 347.140625 6.53125 347.289062 5.78125 C 347.515625 4.652344 346.613281 4.503906 338.207031 4.503906 L 328.824219 4.503906 L 327.625 7.65625 C 326.949219 9.457031 324.996094 15.085938 323.121094 20.265625 C 317.414062 36.703125 313.511719 46.011719 312.910156 45.035156 C 312.535156 44.511719 311.410156 41.660156 310.285156 38.730469 C 307.433594 31.375 307.28125 30.925781 305.179688 26.269531 C 304.128906 24.019531 302.027344 18.914062 300.527344 15.011719 C 299.027344 11.109375 297.449219 7.128906 297.074219 6.15625 C 296.472656 4.578125 296.097656 4.503906 287.015625 4.503906 C 281.835938 4.503906 277.40625 4.503906 277.109375 4.503906 C 276.730469 4.503906 276.507812 5.027344 276.507812 5.78125 C 276.507812 6.605469 277.558594 7.28125 279.886719 7.804688 C 282.4375 8.480469 283.335938 9.082031 283.714844 10.507812 C 284.386719 12.910156 284.539062 53.066406 283.9375 56.222656 C 283.335938 59.222656 281.460938 60.199219 276.730469 60.199219 C 271.929688 60.125 271.027344 59.296875 263.820312 48.488281 C 260.746094 43.910156 257.367188 39.183594 256.242188 37.90625 L 254.140625 35.730469 L 255.941406 34.527344 C 262.546875 30.175781 265.171875 25.746094 264.648438 19.589844 C 264.121094 12.234375 260.746094 7.882812 254.0625 5.628906 C 251.210938 4.730469 246.40625 4.277344 235.222656 3.976562 C 226.96875 3.753906 219.984375 3.828125 219.6875 4.128906 Z M 248.210938 9.53125 C 255.039062 14.488281 254.214844 28.597656 246.859375 32.425781 C 243.855469 34.003906 237.101562 34.304688 237.101562 32.800781 C 237.101562 32.351562 237.023438 26.796875 236.949219 20.640625 C 236.875 14.410156 237.101562 8.855469 237.398438 8.332031 C 238.375 6.832031 245.65625 7.65625 248.210938 9.53125 Z M 248.210938 9.53125 " fill-opacity="1" fill-rule="nonzero"/><path fill="#ffffff" d="M 414.019531 4.203125 C 413.71875 4.503906 413.492188 5.40625 413.492188 6.15625 C 413.492188 7.207031 414.09375 7.507812 415.96875 7.507812 C 417.621094 7.507812 419.046875 8.105469 419.949219 9.082031 C 421.300781 10.582031 421.375 12.085938 421.375 33.851562 C 421.375 59.824219 421.523438 59.074219 415.894531 59.824219 C 412.894531 60.199219 411.242188 61.851562 412.59375 63.203125 C 412.96875 63.578125 417.921875 63.726562 423.703125 63.652344 C 432.933594 63.425781 434.136719 63.277344 434.359375 62.074219 C 434.660156 60.722656 434.136719 60.425781 429.933594 59.75 C 428.054688 59.375 427.003906 58.699219 426.402344 57.421875 C 425.429688 55.394531 425.277344 18.992188 426.179688 18.464844 C 427.078125 17.863281 451.625 48.640625 458.679688 59.074219 C 460.707031 62.074219 462.808594 64.550781 463.335938 64.550781 C 465.886719 64.550781 466.1875 62.601562 465.734375 49.765625 C 465.136719 34.078125 465.136719 36.40625 465.8125 21.769531 C 466.410156 9.609375 466.410156 9.382812 468.289062 8.480469 C 469.339844 7.957031 471.066406 7.507812 472.265625 7.507812 C 473.917969 7.507812 474.292969 7.207031 474.292969 5.628906 L 474.292969 3.679688 L 463.632812 3.902344 C 453.574219 4.128906 452.902344 4.203125 452.902344 5.628906 C 452.902344 6.679688 453.652344 7.207031 455.828125 7.65625 C 461.53125 8.855469 461.53125 8.78125 461.53125 26.496094 L 461.53125 42.257812 L 459.882812 40.457031 C 458.90625 39.40625 456.804688 36.855469 455.152344 34.679688 C 453.574219 32.5 452 30.773438 451.699219 30.773438 C 451.398438 30.773438 450.949219 30.175781 450.722656 29.425781 C 450.5 28.75 449.371094 27.097656 448.246094 25.894531 C 447.046875 24.621094 445.246094 22.441406 444.195312 21.015625 C 443.144531 19.589844 441.265625 17.339844 440.066406 15.988281 C 438.863281 14.710938 436.386719 11.558594 434.585938 9.082031 L 431.359375 4.503906 L 424.453125 4.503906 C 420.699219 4.503906 416.945312 4.277344 416.121094 4.054688 C 415.296875 3.828125 414.320312 3.902344 414.019531 4.203125 Z M 414.019531 4.203125 " fill-opacity="1" fill-rule="nonzero"/></svg>