<?xml version="1.0" standalone="no"?>
<!DOCTYPE svg PUBLIC "-//W3C//DTD SVG 20010904//EN"
 "http://www.w3.org/TR/2001/REC-SVG-20010904/DTD/svg10.dtd">
<svg version="1.0" xmlns="http://www.w3.org/2000/svg"
 width="639.000000pt" height="95.000000pt" viewBox="0 0 639.000000 95.000000"
 preserveAspectRatio="xMidYMid meet">

<g transform="translate(0.000000,95.000000) scale(0.100000,-0.100000)"
fill="#000000" stroke="none">
<path d="M2017 869 c-26 -35 -59 -110 -111 -252 -162 -443 -170 -459 -240
-472 -26 -5 -36 -12 -36 -26 0 -18 8 -19 133 -17 103 2 132 6 132 17 0 7 -20
21 -45 30 -36 13 -45 22 -46 41 -1 14 2 30 6 35 8 11 34 88 31 93 -1 1 6 16
14 32 l16 31 126 -3 126 -3 39 -103 c21 -57 36 -107 33 -112 -3 -5 -19 -11
-35 -15 -21 -5 -30 -13 -30 -26 0 -19 7 -19 152 -17 135 3 153 5 156 20 2 12
-5 19 -22 24 -32 8 -43 25 -100 164 -26 63 -54 129 -62 147 -8 17 -14 35 -14
39 0 4 -9 27 -21 51 -11 24 -22 49 -23 55 -2 7 -8 24 -14 38 -11 27 -25 62
-26 70 -4 19 -90 210 -95 210 -3 0 -23 -23 -44 -51z m31 -295 l49 -129 -90 -3
c-101 -3 -127 2 -109 20 7 7 12 20 12 30 0 10 9 38 21 62 11 25 22 51 23 58 4
22 38 99 42 95 2 -1 25 -61 52 -133z"/>
<path d="M5040 912 c0 -5 -15 -29 -33 -53 -20 -28 -56 -109 -96 -219 -156
-432 -182 -484 -247 -496 -25 -4 -34 -11 -34 -25 0 -18 8 -19 133 -17 108 2
132 6 132 18 0 9 -19 20 -48 28 l-48 14 6 38 c3 21 19 69 34 106 l28 69 125 3
125 3 37 -96 c20 -52 36 -102 36 -110 0 -9 -16 -23 -36 -31 -19 -8 -34 -20
-31 -27 6 -18 309 -17 315 1 2 7 -9 18 -27 25 -25 9 -37 26 -68 96 -21 47 -38
88 -39 91 0 3 -6 18 -12 33 -7 16 -12 30 -12 33 0 3 -13 33 -29 67 -16 34 -36
83 -45 109 -8 26 -29 77 -45 113 -16 36 -28 65 -25 65 2 0 -3 11 -12 24 -8 14
-15 26 -14 28 3 6 -12 43 -30 78 -18 34 -40 51 -40 32z m50 -463 c0 -5 -45 -9
-101 -9 -92 0 -101 2 -94 18 4 9 18 49 32 87 14 39 28 77 31 85 3 8 6 18 7 23
2 4 4 9 5 12 1 3 3 8 4 13 1 4 5 13 10 21 6 9 24 -25 57 -114 27 -70 49 -131
49 -136z"/>
<path d="M330 901 c-189 -62 -305 -265 -272 -478 23 -147 98 -255 210 -306 67
-30 211 -36 283 -12 68 23 162 113 178 170 14 51 -3 72 -27 35 -36 -53 -89
-104 -127 -121 -50 -23 -142 -24 -193 -3 -68 28 -136 113 -155 194 -10 41 -8
248 3 270 1 3 3 10 5 15 1 6 3 12 4 15 2 3 4 13 6 22 6 32 65 106 102 130 52
32 150 32 210 0 53 -28 80 -67 108 -155 22 -68 37 -89 48 -69 7 10 8 104 2
202 -2 41 -5 79 -5 83 0 4 -17 -2 -38 -14 l-37 -22 -45 23 c-35 18 -66 23
-140 26 -52 2 -106 0 -120 -5z"/>
<path d="M794 885 c-9 -21 0 -28 49 -40 31 -8 43 -16 48 -35 11 -41 10 -571
-2 -612 -10 -37 -16 -41 -74 -50 -12 -2 -20 -11 -20 -23 0 -19 8 -20 165 -23
90 -1 170 0 176 2 7 3 10 14 7 25 -4 15 -13 21 -33 21 -52 0 -60 22 -65 188
l-5 152 160 0 160 0 0 -122 c0 -113 -10 -191 -24 -205 -3 -4 -23 -9 -43 -12
-29 -5 -39 -11 -41 -29 l-3 -22 175 0 176 0 0 25 c0 20 -5 25 -24 25 -13 0
-34 9 -47 19 l-24 19 -3 294 c-2 161 0 303 3 315 8 33 33 53 66 53 24 0 29 4
29 25 l0 25 -172 -2 c-164 -3 -173 -4 -173 -23 0 -14 9 -21 34 -26 61 -13 66
-25 69 -173 l4 -134 -49 -3 c-26 -2 -97 -2 -158 1 l-110 5 -3 115 c-2 63 -1
124 2 137 9 33 34 53 67 53 26 0 30 3 27 23 -3 22 -5 22 -171 25 -144 2 -168
0 -173 -13z"/>
<path d="M2474 886 c-9 -23 2 -33 45 -40 71 -11 71 -12 71 -349 l0 -298 -25
-24 c-16 -17 -35 -25 -60 -25 -31 0 -35 -3 -35 -25 l0 -25 189 0 189 0 4 24
c4 21 1 24 -35 29 -73 10 -71 3 -77 335 -6 351 -4 359 83 361 24 1 28 5 25 24
-3 22 -5 22 -186 25 -153 2 -183 0 -188 -12z"/>
<path d="M2898 895 c-5 -5 -8 -17 -8 -27 0 -13 8 -18 29 -18 55 0 56 -5 56
-345 0 -291 -1 -314 -19 -333 -10 -12 -30 -22 -45 -24 -18 -2 -26 -9 -26 -23
0 -19 8 -20 164 -23 165 -3 196 3 184 34 -3 8 -19 14 -38 14 -58 0 -67 22 -69
169 l-1 131 38 0 c34 0 41 -5 81 -60 57 -77 176 -267 176 -280 0 -14 477 -14
485 0 11 17 -13 37 -50 44 -19 4 -36 12 -36 19 -1 12 -4 27 -8 37 -3 10 -2
522 1 525 5 5 197 -441 235 -544 38 -104 67 -107 98 -8 9 29 25 70 35 92 14
33 40 102 45 125 1 3 5 14 10 25 28 70 77 203 80 216 2 10 13 34 24 55 l21 39
-3 -283 c-2 -307 -1 -302 -58 -302 -26 0 -45 -23 -33 -41 9 -15 320 -11 333 4
14 17 -4 37 -34 37 -52 0 -53 10 -54 357 0 224 4 325 11 329 6 4 25 10 42 13
18 4 32 14 34 24 3 15 -9 17 -121 17 l-125 0 -16 -42 c-9 -24 -35 -99 -60
-168 -76 -219 -128 -343 -136 -330 -5 7 -20 45 -35 84 -38 98 -40 104 -68 166
-14 30 -42 98 -62 150 -20 52 -41 105 -46 118 -8 21 -13 22 -134 22 -69 0
-128 0 -132 0 -5 0 -8 -7 -8 -17 0 -11 14 -20 45 -27 34 -9 46 -17 51 -36 9
-32 11 -567 3 -609 -8 -40 -33 -53 -96 -53 -64 1 -76 12 -172 156 -41 61 -86
124 -101 141 l-28 29 24 16 c88 58 123 117 116 199 -7 98 -52 156 -141 186
-38 12 -102 18 -251 22 -110 3 -203 2 -207 -2z m380 -72 c91 -66 80 -254 -18
-305 -40 -21 -130 -25 -130 -5 0 6 -1 80 -2 162 -1 83 2 157 6 164 13 20 110
9 144 -16z"/>
<path d="M5487 894 c-4 -4 -7 -16 -7 -26 0 -14 8 -18 33 -18 22 0 41 -8 53
-21 18 -20 19 -40 19 -330 0 -346 2 -336 -73 -346 -40 -5 -62 -27 -44 -45 5
-5 71 -7 148 -6 123 3 139 5 142 21 4 18 -3 22 -59 31 -25 5 -39 14 -47 31
-13 27 -15 512 -3 519 12 8 339 -402 433 -541 27 -40 55 -73 62 -73 34 0 38
26 32 197 -8 209 -8 178 1 373 8 162 8 165 33 177 14 7 37 13 53 13 22 0 27 4
27 25 l0 26 -142 -3 c-134 -3 -143 -4 -143 -23 0 -14 10 -21 39 -27 76 -16 76
-15 76 -251 l0 -210 -22 24 c-13 14 -41 48 -63 77 -21 29 -42 52 -46 52 -4 0
-10 8 -13 18 -3 9 -18 31 -33 47 -16 17 -40 46 -54 65 -14 19 -39 49 -55 67
-16 17 -49 59 -73 92 l-43 61 -92 0 c-50 0 -100 3 -111 6 -11 3 -24 2 -28 -2z"/>
</g>
</svg>
